{
  "accessors": [
    {
      "bufferView": 2,
      "componentType": 5126,
      "count": 6316,
      "max": [
        10.018268585205078,
        44.14515686035156,
        31.83605194091797
      ],
      "min": [
        -7.996644973754883,
        -67.20867919921875,
        -30.140933990478516
      ],
      "type": "VEC3"
    },
    {
      "bufferView": 2,
      "byteOffset": 75792,
      "componentType": 5126,
      "count": 6316,
      "max": [
        0.9999790191650391,
        0.9996631741523743,
        0.9999966621398926
      ],
      "min": [
        -0.9999790191650391,
        -0.9997826814651489,
        -0.9999104738235474
      ],
      "type": "VEC3"
    },
    {
      "bufferView": 1,
      "componentType": 5126,
      "count": 6316,
      "max": [
        0.9906409978866577,
        0.9928990006446838
      ],
      "min": [
        0.00660899979993701,
        0.009266000241041183
      ],
      "type": "VEC2"
    },
    {
      "bufferView": 0,
      "componentType": 5125,
      "count": 32355,
      "type": "SCALAR"
    },
    {
      "bufferView": 2,
      "byteOffset": 151584,
      "componentType": 5126,
      "count": 9534,
      "max": [
        10.268562316894531,
        43.90526580810547,
        27.177902221679688
      ],
      "min": [
        -8.19546890258789,
        10.244159698486328,
        -29.91857147216797
      ],
      "type": "VEC3"
    },
    {
      "bufferView": 2,
      "byteOffset": 265992,
      "componentType": 5126,
      "count": 9534,
      "max": [
        0.9999669194221497,
        0.9988516569137573,
        0.9993934631347656
      ],
      "min": [
        -0.9999670386314392,
        -0.9999192953109741,
        -1.0
      ],
      "type": "VEC3"
    },
    {
      "bufferView": 1,
      "byteOffset": 50528,
      "componentType": 5126,
      "count": 9534,
      "max": [
        0.9654110074043274,
        0.9960430264472961
      ],
      "min": [
        0.5760930180549622,
        0.23462599515914917
      ],
      "type": "VEC2"
    },
    {
      "bufferView": 0,
      "byteOffset": 129420,
      "componentType": 5125,
      "count": 39900,
      "type": "SCALAR"
    },
    {
      "bufferView": 2,
      "byteOffset": 380400,
      "componentType": 5126,
      "count": 1118,
      "max": [
        3.452008008956909,
        37.282169342041016,
        30.458431243896484
      ],
      "min": [
        -1.395509958267212,
        35.28310775756836,
        28.459373474121094
      ],
      "type": "VEC3"
    },
    {
      "bufferView": 2,
      "byteOffset": 393816,
      "componentType": 5126,
      "count": 1118,
      "max": [
        1.0,
        1.0,
        1.0
      ],
      "min": [
        -1.0,
        -1.0,
        -1.0
      ],
      "type": "VEC3"
    },
    {
      "bufferView": 1,
      "byteOffset": 126800,
      "componentType": 5126,
      "count": 1118,
      "max": [
        0.6968410015106201,
        0.7913069725036621
      ],
      "min": [
        0.5867000222206116,
        0.7543380260467529
      ],
      "type": "VEC2"
    },
    {
      "bufferView": 0,
      "byteOffset": 289020,
      "componentType": 5125,
      "count": 5760,
      "type": "SCALAR"
    }
  ],
  "asset": {
    "extras": {
      "author": "MrTomas (https://sketchfab.com/MrTomas)",
      "license": "CC-BY-4.0 (http://creativecommons.org/licenses/by/4.0/)",
      "source": "https://sketchfab.com/3d-models/dinosaur-38e1ae4d19cb417eb78a034ee7786e06",
      "title": "Dinosaur"
    },
    "generator": "Sketchfab-12.66.0",
    "version": "2.0"
  },
  "bufferViews": [
    {
      "buffer": 0,
      "byteLength": 312060,
      "name": "floatBufferViews",
      "target": 34963
    },
    {
      "buffer": 0,
      "byteLength": 135744,
      "byteOffset": 312060,
      "byteStride": 8,
      "name": "floatBufferViews",
      "target": 34962
    },
    {
      "buffer": 0,
      "byteLength": 407232,
      "byteOffset": 447804,
      "byteStride": 12,
      "name": "floatBufferViews",
      "target": 34962
    }
  ],
  "buffers": [
    {
      "byteLength": 855036,
      "uri": "scene.bin"
    }
  ],
  "images": [
    {
      "uri": "textures/Material_36_baseColor.jpeg"
    },
    {
      "uri": "textures/Material_36_metallicRoughness.png"
    },
    {
      "uri": "textures/Material_36_0_baseColor.jpeg"
    },
    {
      "uri": "textures/Material_36_0_metallicRoughness.png"
    },
    {
      "uri": "textures/Material_36_1_baseColor.jpeg"
    },
    {
      "uri": "textures/Material_36_1_metallicRoughness.png"
    }
  ],
  "materials": [
    {
      "doubleSided": true,
      "name": "Material_36",
      "occlusionTexture": {
        "index": 1,
        "strength": 0.8126905488
      },
      "pbrMetallicRoughness": {
        "baseColorFactor": [
          0.6480564024,
          0.6480564024,
          0.6480564024,
          1.0
        ],
        "baseColorTexture": {
          "index": 0
        },
        "metallicFactor": 0.3370807927,
        "metallicRoughnessTexture": {
          "index": 1
        }
      }
    },
    {
      "doubleSided": true,
      "name": "Material_36_0",
      "pbrMetallicRoughness": {
        "baseColorFactor": [
          0.5626905488,
          0.5626905488,
          0.5626905488,
          1.0
        ],
        "baseColorTexture": {
          "index": 2
        },
        "metallicRoughnessTexture": {
          "index": 3
        }
      }
    },
    {
      "doubleSided": true,
      "name": "Material_36_1",
      "pbrMetallicRoughness": {
        "baseColorTexture": {
          "index": 4
        },
        "metallicRoughnessTexture": {
          "index": 5
        }
      }
    }
  ],
  "meshes": [
    {
      "name": "Deinonych__Material #36_0",
      "primitives": [
        {
          "attributes": {
            "NORMAL": 1,
            "POSITION": 0,
            "TEXCOORD_0": 2
          },
          "indices": 3,
          "material": 0,
          "mode": 4
        }
      ]
    },
    {
      "name": "Deinonych__Material #36_0",
      "primitives": [
        {
          "attributes": {
            "NORMAL": 5,
            "POSITION": 4,
            "TEXCOORD_0": 6
          },
          "indices": 7,
          "material": 1,
          "mode": 4
        }
      ]
    },
    {
      "name": "Deinonych__Material #36_0",
      "primitives": [
        {
          "attributes": {
            "NORMAL": 9,
            "POSITION": 8,
            "TEXCOORD_0": 10
          },
          "indices": 11,
          "material": 2,
          "mode": 4
        }
      ]
    }
  ],
  "nodes": [
    {
      "children": [
        1
      ],
      "matrix": [
        0.9918144345283508,
        -2.835238642758592e-17,
        0.12768779695034027,
        0.0,
        0.12768779695034027,
        2.20227044273791e-16,
        -0.9918144345283508,
        0.0,
        0.0,
        1.0,
        2.220446049250313e-16,
        0.0,
        -0.7845547199249268,
        1.0205141886979272e-15,
        -4.595987319946289,
        1.0
      ],
      "name": "Sketchfab_model"
    },
    {
      "children": [
        2
      ],
      "matrix": [
        1.0,
        0.0,
        0.0,
        0.0,
        0.0,
        0.0,
        1.0,
        0.0,
        0.0,
        -1.0,
        0.0,
        0.0,
        0.0,
        0.0,
        0.0,
        1.0
      ],
      "name": "aff77577e5e04033a9fde69d37f02dc3.fbx"
    },
    {
      "children": [
        3
      ],
      "name": "RootNode"
    },
    {
      "children": [
        4,
        5,
        6
      ],
      "matrix": [
        1.0,
        0.0,
        0.0,
        0.0,
        0.0,
        2.220446049250313e-16,
        -1.0,
        0.0,
        0.0,
        1.0,
        2.220446049250313e-16,
        0.0,
        34.417816162109375,
        0.0,
        -19.948959350585938,
        1.0
      ],
      "name": "Deinonych_"
    },
    {
      "mesh": 0,
      "name": "Deinonych__Material #36_0"
    },
    {
      "mesh": 1,
      "name": "Deinonych__Material #36_0"
    },
    {
      "mesh": 2,
      "name": "Deinonych__Material #36_0"
    }
  ],
  "samplers": [
    {
      "magFilter": 9729,
      "minFilter": 9987,
      "wrapS": 10497,
      "wrapT": 10497
    }
  ],
  "scene": 0,
  "scenes": [
    {
      "name": "Sketchfab_Scene",
      "nodes": [
        0
      ]
    }
  ],
  "textures": [
    {
      "sampler": 0,
      "source": 0
    },
    {
      "sampler": 0,
      "source": 1
    },
    {
      "sampler": 0,
      "source": 2
    },
    {
      "sampler": 0,
      "source": 3
    },
    {
      "sampler": 0,
      "source": 4
    },
    {
      "sampler": 0,
      "source": 5
    }
  ]
}
